<svg width="1280" height="640" viewBox="0 0 1280 640" fill="none" xmlns="http://www.w3.org/2000/svg">
<g clip-path="url(#clip0_1_10)">
<rect x="-1" width="1280" height="640" rx="40" fill="#FFB800"/>
<path d="M511.727 599C506.576 599 502.258 597.259 498.773 593.777C495.288 590.295 493.545 585.981 493.545 580.833V562.667C478.394 562.667 465.515 557.368 454.909 546.771C444.303 536.174 439 523.306 439 508.167V417.333C439 402.194 444.303 389.326 454.909 378.729C465.515 368.132 478.394 362.833 493.545 362.833V326.5C493.545 311.361 498.848 298.493 509.455 287.896C520.061 277.299 532.939 272 548.091 272H729.909C745.061 272 757.939 277.299 768.545 287.896C779.152 298.493 784.455 311.361 784.455 326.5V362.833C799.606 362.833 812.485 368.132 823.091 378.729C833.697 389.326 839 402.194 839 417.333V508.167C839 523.306 833.697 536.174 823.091 546.771C812.485 557.368 799.606 562.667 784.455 562.667V580.833C784.455 585.981 782.712 590.295 779.227 593.777C775.742 597.259 771.424 599 766.273 599C761.121 599 756.803 597.259 753.318 593.777C749.833 590.295 748.091 585.981 748.091 580.833V562.667H529.909V580.833C529.909 585.981 528.167 590.295 524.682 593.777C521.197 597.259 516.879 599 511.727 599ZM493.545 526.333H784.455C789.606 526.333 793.924 524.592 797.409 521.11C800.894 517.628 802.636 513.314 802.636 508.167V417.333C802.636 412.186 800.894 407.872 797.409 404.39C793.924 400.908 789.606 399.167 784.455 399.167C779.303 399.167 774.985 400.908 771.5 404.39C768.015 407.872 766.273 412.186 766.273 417.333V490H511.727V417.333C511.727 412.186 509.985 407.872 506.5 404.39C503.015 400.908 498.697 399.167 493.545 399.167C488.394 399.167 484.076 400.908 480.591 404.39C477.106 407.872 475.364 412.186 475.364 417.333V508.167C475.364 513.314 477.106 517.628 480.591 521.11C484.076 524.592 488.394 526.333 493.545 526.333ZM548.091 453.667H729.909V417.333C729.909 409.158 731.576 401.74 734.909 395.079C738.242 388.418 742.636 382.514 748.091 377.367V326.5C748.091 321.353 746.348 317.038 742.864 313.556C739.379 310.074 735.061 308.333 729.909 308.333H548.091C542.939 308.333 538.621 310.074 535.136 313.556C531.652 317.038 529.909 321.353 529.909 326.5V377.367C535.364 382.514 539.758 388.418 543.091 395.079C546.424 401.74 548.091 409.158 548.091 417.333V453.667Z" fill="white"/>
<path d="M215.495 129.144V146.68H178.887V165.624H206.279V182.648H178.887V219H156.999V129.144H215.495ZM297.527 147.576V219H275.639V209.272C273.42 212.429 270.391 214.989 266.551 216.952C262.796 218.829 258.615 219.768 254.007 219.768C248.545 219.768 243.724 218.573 239.543 216.184C235.361 213.709 232.119 210.168 229.815 205.56C227.511 200.952 226.359 195.533 226.359 189.304V147.576H248.119V186.36C248.119 191.139 249.356 194.851 251.831 197.496C254.305 200.141 257.633 201.464 261.815 201.464C266.081 201.464 269.452 200.141 271.927 197.496C274.401 194.851 275.639 191.139 275.639 186.36V147.576H297.527ZM335.137 159.48C337.697 155.555 340.897 152.483 344.737 150.264C348.577 147.96 352.843 146.808 357.537 146.808V169.976H351.521C346.059 169.976 341.963 171.171 339.233 173.56C336.502 175.864 335.137 179.96 335.137 185.848V219H313.249V147.576H335.137V159.48ZM411.519 146.808C419.881 146.808 426.537 149.539 431.487 155C436.521 160.376 439.039 167.8 439.039 177.272V219H417.279V180.216C417.279 175.437 416.041 171.725 413.567 169.08C411.092 166.435 407.764 165.112 403.583 165.112C399.401 165.112 396.073 166.435 393.599 169.08C391.124 171.725 389.887 175.437 389.887 180.216V219H367.999V147.576H389.887V157.048C392.105 153.891 395.092 151.416 398.847 149.624C402.601 147.747 406.825 146.808 411.519 146.808ZM465.257 140.152C461.417 140.152 458.259 139.043 455.785 136.824C453.395 134.52 452.201 131.704 452.201 128.376C452.201 124.963 453.395 122.147 455.785 119.928C458.259 117.624 461.417 116.472 465.257 116.472C469.011 116.472 472.083 117.624 474.473 119.928C476.947 122.147 478.185 124.963 478.185 128.376C478.185 131.704 476.947 134.52 474.473 136.824C472.083 139.043 469.011 140.152 465.257 140.152ZM476.137 147.576V219H454.249V147.576H476.137ZM531.807 200.44V219H520.671C512.735 219 506.548 217.08 502.111 213.24C497.673 209.315 495.455 202.957 495.455 194.168V165.752H486.751V147.576H495.455V130.168H517.343V147.576H531.679V165.752H517.343V194.424C517.343 196.557 517.855 198.093 518.879 199.032C519.903 199.971 521.609 200.44 523.999 200.44H531.807ZM614.527 147.576V219H592.639V209.272C590.42 212.429 587.391 214.989 583.551 216.952C579.796 218.829 575.615 219.768 571.007 219.768C565.545 219.768 560.724 218.573 556.543 216.184C552.361 213.709 549.119 210.168 546.815 205.56C544.511 200.952 543.359 195.533 543.359 189.304V147.576H565.119V186.36C565.119 191.139 566.356 194.851 568.831 197.496C571.305 200.141 574.633 201.464 578.815 201.464C583.081 201.464 586.452 200.141 588.927 197.496C591.401 194.851 592.639 191.139 592.639 186.36V147.576H614.527ZM652.137 159.48C654.697 155.555 657.897 152.483 661.737 150.264C665.577 147.96 669.843 146.808 674.537 146.808V169.976H668.521C663.059 169.976 658.963 171.171 656.233 173.56C653.502 175.864 652.137 179.96 652.137 185.848V219H630.249V147.576H652.137V159.48ZM752.326 182.136C752.326 184.184 752.199 186.317 751.943 188.536H702.407C702.748 192.973 704.156 196.387 706.631 198.776C709.191 201.08 712.305 202.232 715.975 202.232C721.436 202.232 725.233 199.928 727.367 195.32H750.663C749.468 200.013 747.292 204.237 744.135 207.992C741.063 211.747 737.18 214.691 732.487 216.824C727.793 218.957 722.545 220.024 716.743 220.024C709.745 220.024 703.516 218.531 698.055 215.544C692.593 212.557 688.327 208.291 685.255 202.744C682.183 197.197 680.647 190.712 680.647 183.288C680.647 175.864 682.14 169.379 685.127 163.832C688.199 158.285 692.465 154.019 697.927 151.032C703.388 148.045 709.66 146.552 716.743 146.552C723.655 146.552 729.799 148.003 735.175 150.904C740.551 153.805 744.732 157.944 747.719 163.32C750.791 168.696 752.326 174.968 752.326 182.136ZM729.927 176.376C729.927 172.621 728.647 169.635 726.087 167.416C723.527 165.197 720.327 164.088 716.487 164.088C712.817 164.088 709.703 165.155 707.143 167.288C704.668 169.421 703.132 172.451 702.535 176.376H729.927ZM823.511 219.896C816.94 219.896 811.052 218.829 805.847 216.696C800.641 214.563 796.46 211.405 793.303 207.224C790.231 203.043 788.609 198.008 788.439 192.12H811.735C812.076 195.448 813.228 198.008 815.191 199.8C817.153 201.507 819.713 202.36 822.871 202.36C826.113 202.36 828.673 201.635 830.551 200.184C832.428 198.648 833.367 196.557 833.367 193.912C833.367 191.693 832.599 189.859 831.063 188.408C829.612 186.957 827.777 185.763 825.559 184.824C823.425 183.885 820.353 182.819 816.343 181.624C810.54 179.832 805.804 178.04 802.135 176.248C798.465 174.456 795.308 171.811 792.663 168.312C790.017 164.813 788.695 160.248 788.695 154.616C788.695 146.253 791.724 139.725 797.783 135.032C803.841 130.253 811.735 127.864 821.463 127.864C831.361 127.864 839.34 130.253 845.399 135.032C851.457 139.725 854.7 146.296 855.127 154.744H831.447C831.276 151.843 830.209 149.581 828.247 147.96C826.284 146.253 823.767 145.4 820.694 145.4C818.049 145.4 815.916 146.125 814.295 147.576C812.673 148.941 811.863 150.947 811.863 153.592C811.863 156.493 813.228 158.755 815.958 160.376C818.689 161.997 822.956 163.747 828.759 165.624C834.561 167.587 839.255 169.464 842.839 171.256C846.508 173.048 849.665 175.651 852.311 179.064C854.956 182.477 856.279 186.872 856.279 192.248C856.279 197.368 854.956 202.019 852.311 206.2C849.751 210.381 845.996 213.709 841.047 216.184C836.097 218.659 830.252 219.896 823.511 219.896ZM909.557 200.44V219H898.421C890.485 219 884.298 217.08 879.861 213.24C875.423 209.315 873.205 202.957 873.205 194.168V165.752H864.501V147.576H873.205V130.168H895.093V147.576H909.429V165.752H895.093V194.424C895.093 196.557 895.605 198.093 896.629 199.032C897.653 199.971 899.359 200.44 901.749 200.44H909.557ZM954.261 220.024C947.263 220.024 940.949 218.531 935.317 215.544C929.77 212.557 925.375 208.291 922.133 202.744C918.975 197.197 917.397 190.712 917.397 183.288C917.397 175.949 919.018 169.507 922.26 163.96C925.503 158.328 929.941 154.019 935.573 151.032C941.205 148.045 947.519 146.552 954.517 146.552C961.514 146.552 967.829 148.045 973.461 151.032C979.093 154.019 983.53 158.328 986.773 163.96C990.015 169.507 991.637 175.949 991.637 183.288C991.637 190.627 989.973 197.112 986.645 202.744C983.402 208.291 978.922 212.557 973.205 215.544C967.573 218.531 961.258 220.024 954.261 220.024ZM954.261 201.08C958.442 201.08 961.983 199.544 964.885 196.472C967.871 193.4 969.365 189.005 969.365 183.288C969.365 177.571 967.914 173.176 965.013 170.104C962.197 167.032 958.698 165.496 954.517 165.496C950.25 165.496 946.709 167.032 943.893 170.104C941.077 173.091 939.669 177.485 939.669 183.288C939.669 189.005 941.034 193.4 943.765 196.472C946.581 199.544 950.079 201.08 954.261 201.08ZM1025.14 159.48C1027.7 155.555 1030.9 152.483 1034.74 150.264C1038.58 147.96 1042.84 146.808 1047.54 146.808V169.976H1041.52C1036.06 169.976 1031.96 171.171 1029.23 173.56C1026.5 175.864 1025.14 179.96 1025.14 185.848V219H1003.25V147.576H1025.14V159.48ZM1125.33 182.136C1125.33 184.184 1125.2 186.317 1124.94 188.536H1075.41C1075.75 192.973 1077.16 196.387 1079.63 198.776C1082.19 201.08 1085.31 202.232 1088.97 202.232C1094.44 202.232 1098.23 199.928 1100.37 195.32H1123.66C1122.47 200.013 1120.29 204.237 1117.13 207.992C1114.06 211.747 1110.18 214.691 1105.49 216.824C1100.79 218.957 1095.55 220.024 1089.74 220.024C1082.75 220.024 1076.52 218.531 1071.05 215.544C1065.59 212.557 1061.33 208.291 1058.25 202.744C1055.18 197.197 1053.65 190.712 1053.65 183.288C1053.65 175.864 1055.14 169.379 1058.13 163.832C1061.2 158.285 1065.47 154.019 1070.93 151.032C1076.39 148.045 1082.66 146.552 1089.74 146.552C1096.65 146.552 1102.8 148.003 1108.17 150.904C1113.55 153.805 1117.73 157.944 1120.72 163.32C1123.79 168.696 1125.33 174.968 1125.33 182.136ZM1102.93 176.376C1102.93 172.621 1101.65 169.635 1099.09 167.416C1096.53 165.197 1093.33 164.088 1089.49 164.088C1085.82 164.088 1082.7 165.155 1080.14 167.288C1077.67 169.421 1076.13 172.451 1075.53 176.376H1102.93Z" fill="white"/>
</g>
<defs>
<clipPath id="clip0_1_10">
<rect width="1280" height="640" fill="white"/>
</clipPath>
</defs>
</svg>
