<svg width="200" height="200" viewBox="0 0 200 200" fill="none" xmlns="http://www.w3.org/2000/svg">
<g clip-path="url(#clip0_1_6)">
<rect width="200" height="200" rx="100" fill="#FFB800"/>
<path d="M63.7273 147C62.2591 147 61.0284 146.505 60.0352 145.515C59.042 144.524 58.5455 143.297 58.5455 141.833V136.667C54.2273 136.667 50.5568 135.16 47.5341 132.146C44.5114 129.132 43 125.472 43 121.167V95.3333C43 91.0278 44.5114 87.3681 47.5341 84.3542C50.5568 81.3403 54.2273 79.8333 58.5455 79.8333V69.5C58.5455 65.1944 60.0568 61.5347 63.0795 58.5208C66.1023 55.5069 69.7727 54 74.0909 54H125.909C130.227 54 133.898 55.5069 136.92 58.5208C139.943 61.5347 141.455 65.1944 141.455 69.5V79.8333C145.773 79.8333 149.443 81.3403 152.466 84.3542C155.489 87.3681 157 91.0278 157 95.3333V121.167C157 125.472 155.489 129.132 152.466 132.146C149.443 135.16 145.773 136.667 141.455 136.667V141.833C141.455 143.297 140.958 144.524 139.965 145.515C138.972 146.505 137.741 147 136.273 147C134.805 147 133.574 146.505 132.581 145.515C131.587 144.524 131.091 143.297 131.091 141.833V136.667H68.9091V141.833C68.9091 143.297 68.4125 144.524 67.4193 145.515C66.4261 146.505 65.1955 147 63.7273 147ZM58.5455 126.333H141.455C142.923 126.333 144.153 125.838 145.147 124.848C146.14 123.858 146.636 122.631 146.636 121.167V95.3333C146.636 93.8694 146.14 92.6424 145.147 91.6521C144.153 90.6618 142.923 90.1667 141.455 90.1667C139.986 90.1667 138.756 90.6618 137.762 91.6521C136.769 92.6424 136.273 93.8694 136.273 95.3333V116H63.7273V95.3333C63.7273 93.8694 63.2307 92.6424 62.2375 91.6521C61.2443 90.6618 60.0136 90.1667 58.5455 90.1667C57.0773 90.1667 55.8466 90.6618 54.8534 91.6521C53.8602 92.6424 53.3636 93.8694 53.3636 95.3333V121.167C53.3636 122.631 53.8602 123.858 54.8534 124.848C55.8466 125.838 57.0773 126.333 58.5455 126.333ZM74.0909 105.667H125.909V95.3333C125.909 93.0083 126.384 90.8986 127.334 89.0042C128.284 87.1097 129.536 85.4306 131.091 83.9667V69.5C131.091 68.0361 130.594 66.809 129.601 65.8187C128.608 64.8285 127.377 64.3333 125.909 64.3333H74.0909C72.6227 64.3333 71.392 64.8285 70.3989 65.8187C69.4057 66.809 68.9091 68.0361 68.9091 69.5V83.9667C70.4636 85.4306 71.7159 87.1097 72.6659 89.0042C73.6159 90.8986 74.0909 93.0083 74.0909 95.3333V105.667Z" fill="white"/>
</g>
<defs>
<clipPath id="clip0_1_6">
<rect width="200" height="200" fill="white"/>
</clipPath>
</defs>
</svg>
